<?xml version="1.0" encoding="UTF-8" standalone="no"?>
<svg
   version="1.0"
   width="388.7645pt"
   height="671.70056pt"
   viewBox="0 0 388.7645 671.70056"
   preserveAspectRatio="xMidYMid meet"
   id="svg849"
   sodipodi:docname="leaf.svg"
   inkscape:version="1.1.1 (3bf5ae0d25, 2021-09-20)"
   xmlns:inkscape="http://www.inkscape.org/namespaces/inkscape"
   xmlns:sodipodi="http://sodipodi.sourceforge.net/DTD/sodipodi-0.dtd"
   xmlns="http://www.w3.org/2000/svg"
   xmlns:svg="http://www.w3.org/2000/svg"
   xmlns:rdf="http://www.w3.org/1999/02/22-rdf-syntax-ns#"
   xmlns:cc="http://creativecommons.org/ns#"
   xmlns:dc="http://purl.org/dc/elements/1.1/">
  <metadata
     id="metadata855">
    <rdf:RDF>
      <cc:Work
         rdf:about="">
        <dc:format>image/svg+xml</dc:format>
        <dc:type
           rdf:resource="http://purl.org/dc/dcmitype/StillImage" />
      </cc:Work>
    </rdf:RDF>
  </metadata>
  <defs
     id="defs853" />
  <sodipodi:namedview
     fit-margin-bottom="0"
     fit-margin-right="0"
     fit-margin-left="0"
     fit-margin-top="0"
     inkscape:snap-global="false"
     inkscape:lockguides="false"
     inkscape:document-rotation="0"
     pagecolor="#ffffff"
     bordercolor="#666666"
     borderopacity="1"
     objecttolerance="10"
     gridtolerance="10"
     guidetolerance="10"
     inkscape:pageopacity="0"
     inkscape:pageshadow="2"
     inkscape:window-width="1920"
     inkscape:window-height="991"
     id="namedview851"
     showgrid="false"
     inkscape:zoom="0.73892444"
     inkscape:cx="639.44292"
     inkscape:cy="390.43234"
     inkscape:window-x="-9"
     inkscape:window-y="-9"
     inkscape:window-maximized="1"
     inkscape:current-layer="g3441"
     inkscape:pagecheckerboard="0"
     inkscape:document-units="pt" />
  <g
     transform="translate(-467.67543,-428.92603)"
     id="g1034">
    <g
       transform="translate(381.37725,521.33221)"
       id="g3441">
      <g
         style="fill:#219c55;fill-opacity:1"
         id="g3759">
        <path
           id="path3738"
           style="fill:#219c55;fill-opacity:1;stroke:none;stroke-width:1.44675;stroke-miterlimit:4;stroke-dasharray:none;stroke-opacity:1"
           d="m 174.15678,57.973732 c 0.0538,-0.04988 0.10575,-0.101025 0.15967,-0.1509 -0.1143,-0.181425 -0.75367,-1.3578 -0.74557,-1.3125 0.009,0.04868 0.48052,1.184925 0.5859,1.4634 z" />
        <path
           id="path3736"
           style="fill:#219c55;fill-opacity:1;stroke:none;stroke-width:1.44675;stroke-miterlimit:4;stroke-dasharray:none;stroke-opacity:1"
           d="m 120.88045,130.58603 c 0.017,-0.0344 0.0298,-0.0607 0.0469,-0.0952 -0.0226,-0.0204 -0.40492,-0.5439 -0.39847,-0.5244 0.007,0.0215 0.31845,0.5541 0.3516,0.61965 z" />
        <path
           id="path3734"
           style="fill:#219c55;fill-opacity:1;stroke:none;stroke-width:1.44675;stroke-miterlimit:4;stroke-dasharray:none;stroke-opacity:1"
           d="m 301.73591,350.24814 c -4.55468,-3.7962 -9.1131,-7.59683 -13.6743,-11.61623 -6.06525,-5.34472 -12.12233,-10.87425 -18.13335,-16.55272 -6.01095,-5.6784 -11.97623,-11.50508 -17.85788,-17.44778 -5.88165,-5.94262 -11.67975,-12.0003 -17.35695,-18.13762 -5.0775,-5.49218 -10.10738,-11.09453 -15.08498,-16.8003 -4.97752,-5.70585 -9.90217,-11.51528 -14.76997,-17.42146 -4.8678,-5.9061 -9.67755,-11.9097 -14.4258,-18.00292 -4.74825,-6.09323 -9.43478,-12.27645 -14.05373,-18.54345 -4.61887,-6.26693 -9.17107,-12.61703 -13.6509,-19.04438 -4.47975,-6.42742 -8.88787,-12.93135 -13.21875,-19.50592 -4.33087,-6.5745 -8.58367,-13.21935 -12.75585,-19.92773 -4.17217,-6.7083 -8.2629,-13.48117 -12.26655,-20.31007 -1.9023,-3.2703 -3.26662,-5.67915 -3.60645,-6.35153 -1.82992,3.7005 -3.83902,7.6824 -4.9629,10.27298 -2.39985,5.57445 -4.63822,11.1864 -6.70897,16.81492 -2.07083,5.62853 -3.97418,11.27393 -5.7012,16.91453 -1.72703,5.64067 -3.27795,11.2773 -4.646477,16.8882 -1.368525,5.6109 -2.553975,11.19652 -3.5493,16.73587 -0.98955,5.52825 -1.70955,10.15208 -2.261775,14.65718 -0.55215,4.50517 -0.9372,8.89125 -1.25535,13.9395 -0.321225,5.19487 -0.464175,10.34932 -0.43215,15.4614 0.0321,5.11207 0.2397,10.18118 0.624075,15.20655 0.3843,5.02538 0.9447,10.0065 1.68015,14.94143 0.73545,4.93485 1.646475,9.82395 2.73195,14.66452 1.0854,4.84058 2.34495,9.63353 3.779327,14.376 1.4343,4.7424 3.04312,9.43365 4.82512,14.0742 1.78208,4.64048 3.73808,9.2289 5.86673,13.7637 2.12872,4.53473 4.42965,9.0162 6.90382,13.44135 2.59275,4.62338 5.4102,9.18053 8.41845,13.6392 3.00825,4.45868 6.20723,8.81903 9.56543,13.05173 3.3582,4.2327 6.87487,8.3373 10.51755,12.28275 3.64275,3.94537 7.41172,7.7322 11.27347,11.32905 3.86176,3.59692 7.81763,7.00395 11.83298,10.19092 4.01535,3.18705 8.08995,6.15375 12.19342,8.86965 4.1034,2.7159 8.23568,5.18025 12.3618,7.3638 2.06303,1.0917 4.12373,2.1129 6.18015,3.06 2.05643,0.94718 4.10775,1.82138 6.1494,2.61623 1.90035,0.7452 3.87053,1.40445 5.8242,1.9644 1.95375,0.55987 3.89153,1.0191 5.72903,1.3623 1.8375,0.34312 3.5739,0.57142 5.1255,0.66645 1.5516,0.095 2.919,0.0571 4.01512,-0.12743 1.11983,-0.14497 2.0355,-0.18772 2.05958,-0.0644 0.0322,0.16432 -3.68355,4.63732 -8.15768,9.90083 -4.4742,5.26357 -9.70665,11.31765 -12.70605,14.64697 -3.52335,3.91088 -7.0044,7.6647 -10.44142,11.25735 -3.4371,3.59265 -6.82943,7.02458 -10.1748,10.29495 -3.34538,3.27038 -6.64388,6.3783 -9.89213,9.32228 -3.24825,2.94397 -6.44752,5.72437 -9.59325,8.3379 -3.14572,2.61345 -6.23767,5.05987 -9.2754,7.33882 -3.03772,2.27895 -6.01995,4.3908 -8.94435,6.33105 -2.92432,1.94025 -5.79165,3.70965 -8.59717,5.30715 -2.80545,1.5975 -5.54963,3.02228 -8.23095,4.27298 -2.36655,1.10662 -4.51005,2.04382 -6.58883,2.8593 -2.07885,0.81555 -4.0926,1.50945 -6.20362,2.12992 -2.1111,0.62048 -4.31888,1.16745 -6.78225,1.68893 -2.46338,0.52155 -5.1831,1.0179 -8.31885,1.53667 -2.59545,0.42713 -4.88085,0.846 -6.648902,1.2231 -1.76805,0.37718 -3.018375,0.71243 -3.542025,0.96975 -0.928275,0.4305 -1.83345,1.01235 -2.683575,1.70948 -0.850125,0.69712 -1.646025,1.50907 -2.35695,2.39797 -0.71085,0.88883 -1.336575,1.85513 -1.847175,2.8608 -0.510525,1.00568 -0.9051,2.052 -1.15425,3.0996 -0.3585,1.48643 -0.546075,3.0225 -0.577125,4.58355 -0.03112,1.56098 0.09443,3.14595 0.3618,4.72703 0.2673,1.58107 0.676125,3.15847 1.2129,4.70505 0.5367,1.54665 1.200375,3.06285 1.977525,4.52055 0.77715,1.45762 1.667175,2.85622 2.65575,4.17037 0.9885,1.31423 2.0766,2.54445 3.247575,3.66068 1.1709,1.11622 2.42565,2.11867 3.75,2.98237 1.324352,0.86378 2.717252,1.58783 4.166022,2.14455 1.2603,0.49043 2.60093,0.84833 3.97703,1.0752 1.3761,0.22688 2.78887,0.32265 4.19385,0.29003 1.40497,-0.0326 2.80147,-0.19388 4.1484,-0.48188 1.347,-0.28807 2.64322,-0.70282 3.84525,-1.24222 2.01405,-0.91215 4.13775,-2.0091 6.36472,-3.2871 2.22705,-1.278 4.55783,-2.73765 6.99023,-4.3755 2.43247,-1.63778 4.96635,-3.4533 7.59667,-5.44485 2.6304,-1.99148 5.35755,-4.15883 8.17823,-6.498 2.82075,-2.33918 5.73427,-4.8501 8.7378,-7.53075 3.0036,-2.68073 6.09652,-5.53125 9.2754,-8.54738 6.35782,-6.0324 13.05885,-12.72922 20.07277,-20.06692 3.82455,-4.00133 7.8036,-8.27745 11.8125,-12.6885 4.0089,-4.41098 8.04848,-8.9574 11.99708,-13.49558 3.94852,-4.53817 7.80555,-9.069 11.4492,-13.45162 3.64365,-4.3827 7.0734,-8.61653 10.16752,-12.56108 3.5397,-4.51882 7.09035,-9.2877 10.6347,-14.27925 3.54443,-4.99162 7.08338,-10.2063 10.60111,-15.6138 3.51772,-5.4075 7.01392,-11.00873 10.4736,-16.7754 3.45975,-5.76668 6.88207,-11.69805 10.2525,-17.76705 3.37035,-6.06908 6.68925,-12.27578 9.93892,-18.5904 3.24968,-6.31455 6.43118,-12.7374 9.52883,-19.24073 2.68597,-5.6391 5.27557,-11.36085 7.8252,-17.10202 z" />
        <path
           id="path3728"
           style="fill:#219c55;fill-opacity:1;stroke:none;stroke-width:1.44675;stroke-miterlimit:4;stroke-dasharray:none;stroke-opacity:1"
           d="m 323.49176,295.01476 a 265.77631,234.33025 30.408405 0 1 -0.10695,0.11423 265.77631,234.33025 30.408405 0 1 -0.31343,0.33547 c -5.23237,-5.61862 -10.46025,-11.44372 -15.6504,-17.43607 -5.19022,-5.99228 -10.3434,-12.1521 -15.42772,-18.44085 -5.0844,-6.28883 -10.09995,-12.70643 -15.0147,-19.21441 -4.91468,-6.50797 -9.72833,-13.10647 -14.40968,-19.75635 -4.18635,-5.95027 -8.30797,-11.99167 -12.3618,-18.12007 -4.05375,-6.1284 -8.03955,-12.3432 -11.95313,-18.63578 -3.91357,-6.29257 -7.7553,-12.66322 -11.52097,-19.10595 -3.76568,-6.44272 -7.4553,-12.95767 -11.06543,-19.5366 -3.6102,-6.57892 -7.1409,-13.2222 -10.5879,-19.92337 -3.447,-6.70118 -6.81075,-13.45958 -10.0869,-20.26905 -3.27622,-6.809402 -6.46485,-13.669952 -9.5625,-20.573703 -3.09772,-6.90375 -6.10455,-13.8504 -9.01612,-20.834475 -1.20218,-2.912625 -1.85085,-4.57035 -2.25735,-5.64405 -2.2638,2.097375 -4.5738,4.173 -6.72803,6.3252 -3.46567,3.46245 -6.79349,6.9999 -9.99465,10.623075 -3.20107,3.6231 -6.2757,7.331625 -9.2358,11.138625 -2.9601,3.807076 -5.80612,7.711876 -8.5488,11.726101 -2.74275,4.014147 -5.38185,8.137727 -7.93072,12.382277 -2.26448,3.74272 -5.36948,9.46642 -8.33055,15.22852 -0.97545,1.89818 -1.55175,3.25605 -2.4609,5.09325 0.25777,0.23295 1.96965,2.4573 4.5366,5.96925 5.08035,6.93128 10.23607,13.764 15.46725,20.49615 5.23125,6.73208 10.53877,13.36485 15.92145,19.8984 5.3826,6.53355 10.84087,12.9681 16.37542,19.30373 5.53463,6.33562 11.14545,12.57225 16.83255,18.71047 5.6871,6.13815 11.45085,12.17715 17.29103,18.11865 5.84017,5.94143 11.75722,11.78453 17.751,17.52975 5.9937,5.74523 12.0645,11.39281 18.2124,16.94236 6.1479,5.54962 12.37268,11.0019 18.6753,16.35645 4.64205,3.9402 9.35123,7.83877 14.1108,11.68365 4.75958,3.8448 9.56993,7.63597 14.41118,11.3613 4.84117,3.72532 9.71437,7.3842 14.60152,10.96582 2.6091,1.91213 5.22548,3.74003 7.83983,5.60595 2.65522,-6.72405 5.27505,-13.46752 7.74907,-20.29395 0.97253,-2.68357 1.84448,-5.4246 2.78903,-8.124 z" />
        <path
           id="path3720"
           style="fill:#219c55;fill-opacity:1;stroke:none;stroke-width:1.44675;stroke-miterlimit:4;stroke-dasharray:none;stroke-opacity:1"
           d="m 471.33409,278.91174 c -0.19088,0.11662 -1.56983,0.71775 -3.2637,1.42822 -3.34785,1.3839 -6.70365,2.6949 -10.0635,3.93015 -3.35985,1.23525 -6.72368,2.39558 -10.08833,3.48045 -3.36472,1.08495 -6.73035,2.09348 -10.09283,3.0264 -3.3624,0.93293 -6.72067,1.7901 -10.0737,2.56935 -3.3531,0.77925 -6.70057,1.48103 -10.0371,2.10495 -3.3366,0.62393 -6.66262,1.16933 -9.9756,1.63628 -3.31297,0.46687 -6.61275,0.8562 -9.89505,1.16452 -3.28222,0.30825 -6.54802,0.5361 -9.79245,0.68408 -3.62655,0.16372 -7.26247,0.2244 -10.8882,0.18307 -3.62572,-0.0412 -7.24012,-0.18375 -10.82077,-0.42622 -3.58073,-0.24248 -7.12883,-0.58545 -10.62015,-1.0254 -3.4491,-0.43463 -6.8412,-0.96863 -10.16018,-1.59233 -0.0335,0.15413 -0.0602,0.31328 -0.0938,0.46733 -1.73197,7.94962 -3.5754,15.80895 -5.52682,23.56935 -2.35823,9.36622 -4.90838,18.68805 -7.62893,27.8994 -2.72047,9.21135 -5.6115,18.31327 -8.6499,27.24022 -3.0384,8.92695 -6.22417,17.6784 -9.5361,26.19143 -3.31192,8.51295 -6.74947,16.78785 -10.29052,24.75727 -2.12003,4.7646 -4.35225,9.57525 -6.6504,14.34375 -2.29815,4.76858 -4.66148,9.49478 -7.04445,14.08741 -2.38298,4.5927 -4.78568,9.05205 -7.16018,13.2891 -2.37442,4.23705 -4.72057,8.25157 -6.99315,11.95312 l -1.30665,2.12693 2.4624,3.2871 c 2.12693,2.8365 4.3563,5.54962 6.68408,8.1387 2.32785,2.58907 4.7541,5.05395 7.27882,7.39305 2.5248,2.3391 5.14703,4.55212 7.86473,6.6387 2.71777,2.08657 5.5323,4.04692 8.439,5.87842 2.9067,1.83143 5.90685,3.53415 8.9985,5.10788 3.09165,1.5738 6.27382,3.01807 9.54645,4.33155 3.27262,1.31355 6.63435,2.4957 10.08397,3.54637 3.44955,1.05068 6.98723,1.9701 10.60988,2.75543 3.10672,0.6759 5.8395,1.21657 8.34082,1.63327 2.50125,0.4167 4.77068,0.70958 6.9492,0.89063 2.17845,0.18105 4.26728,0.25065 6.40575,0.21975 2.1384,-0.0309 4.32638,-0.16313 6.70755,-0.38235 2.37323,-0.21848 4.57058,-0.48765 6.6606,-0.82913 2.09003,-0.3414 4.0734,-0.75382 6.01613,-1.25677 1.94272,-0.50303 3.846,-1.0971 5.77732,-1.8003 1.9314,-0.70328 3.8913,-1.5159 5.94728,-2.45805 2.14687,-0.98708 4.2564,-2.07135 6.32812,-3.249 2.07173,-1.17765 4.10543,-2.44868 6.0996,-3.813 1.99418,-1.36433 3.94815,-2.82105 5.8623,-4.36815 1.91423,-1.5471 3.7875,-3.1857 5.61915,-4.9116 1.83173,-1.72598 3.6219,-3.53955 5.36865,-5.4405 1.74675,-1.90088 3.45,-3.88845 5.10938,-5.9604 1.65937,-2.07195 3.27472,-4.2282 4.84425,-6.46733 1.56952,-2.23912 3.09315,-4.5615 4.57035,-6.96382 1.47713,-2.4024 2.90805,-4.88558 4.29053,-7.44728 1.3824,-2.5617 2.71672,-5.20177 4.00192,-7.91895 1.2852,-2.71717 2.52203,-5.51167 3.70755,-8.38035 1.18545,-2.86875 2.31945,-5.81227 3.40283,-8.82862 1.0833,-3.01635 2.115,-6.10508 3.09375,-9.26513 0.97875,-3.16013 1.9056,-6.3915 2.77732,-9.69143 0.87165,-3.29992 1.68848,-6.66862 2.4507,-10.10452 0.76215,-3.43583 1.4694,-6.93795 2.11958,-10.50585 1.42785,-7.84808 2.4846,-14.65883 3.30615,-21.5727 0.82155,-6.91395 1.4073,-13.93215 1.89262,-22.19535 0.49358,-8.54625 0.7491,-17.2011 0.7632,-26.02733 0.0141,-8.8263 -0.2127,-17.82292 -0.68265,-27.05422 -0.46995,-9.2313 -1.18297,-18.69758 -2.14162,-28.45898 -0.23963,-2.44035 -0.63338,-5.0802 -0.90375,-7.55857 z m -135.22853,56.87257 c 4.9809,1.87515 10.08892,3.58223 15.25192,5.09175 5.163,1.50953 10.38,2.82075 15.58155,3.90675 3.5328,0.73478 7.07888,1.3815 10.6362,1.938 3.5574,0.5565 7.12718,1.0236 10.70948,1.40183 3.5823,0.37822 7.17667,0.66727 10.78417,0.86722 3.60758,0.19988 7.22723,0.31088 10.86038,0.33248 3.63315,0.0217 7.28032,-0.047 10.93942,-0.20355 3.65918,-0.15668 7.3302,-0.40193 11.01563,-0.73688 3.6855,-0.33487 7.38555,-0.75825 11.09768,-1.27147 3.71212,-0.51315 7.4376,-1.11615 11.1768,-1.80758 2.05875,-0.38535 3.6549,-0.63097 3.55072,-0.55522 -0.10425,0.076 -1.6605,0.66322 -3.4497,1.31107 -3.4125,1.21575 -6.8295,2.35808 -10.24657,3.4248 -3.41708,1.06673 -6.83356,2.05875 -10.24801,2.9751 -3.41452,0.91628 -6.82582,1.75635 -10.23052,2.52098 -3.40463,0.76462 -6.80325,1.4538 -10.19093,2.06542 -3.3876,0.61163 -6.7644,1.14525 -10.12792,1.60253 -3.36345,0.45735 -6.71378,0.83797 -10.04588,1.1397 -3.3321,0.30165 -6.64687,0.52462 -9.94042,0.66937 -3.29355,0.14475 -6.5652,0.21128 -9.813,0.19778 -3.63015,-0.0168 -7.26608,-0.1374 -10.88528,-0.35888 -3.6192,-0.22147 -7.22145,-0.54367 -10.7856,-0.9639 -3.56422,-0.42015 -7.09057,-0.93832 -10.55565,-1.55122 -3.46515,-0.61298 -6.86887,-1.32135 -10.19092,-2.12108 a 115.75731,180.40746 2.9652373 0 1 0.17137,-0.79252 115.75731,180.40746 2.9652373 0 1 0.2256,-1.02248 115.75731,180.40746 2.9652373 0 1 0.22995,-1.02097 115.75731,180.40746 2.9652373 0 1 0.23295,-1.01955 115.75731,180.40746 2.9652373 0 1 0.2373,-1.01655 115.75731,180.40746 2.9652373 0 1 0.24165,-1.0152 115.75731,180.40746 2.9652373 0 1 0.24465,-1.0122 115.75731,180.40746 2.9652373 0 1 0.24758,-1.0107 115.75731,180.40746 2.9652373 0 1 0.25342,-1.00928 115.75731,180.40746 2.9652373 0 1 0.25485,-1.00785 115.75731,180.40746 2.9652373 0 1 0.26078,-1.00485 115.75731,180.40746 2.9652373 0 1 0.26362,-1.002 115.75731,180.40746 2.9652373 0 1 0.26663,-1.00042 115.75731,180.40746 2.9652373 0 1 0.27097,-0.99908 115.75731,180.40746 2.9652373 0 1 0.2754,-0.99607 115.75731,180.40746 2.9652373 0 1 0.27833,-0.99315 115.75731,180.40746 2.9652373 0 1 0.28275,-0.99173 115.75731,180.40746 2.9652373 0 1 0.2856,-0.98872 115.75731,180.40746 2.9652373 0 1 0.2886,-0.9873 115.75731,180.40746 2.9652373 0 1 0.29445,-0.98438 z" />
        <path
           id="path3716"
           style="fill:#219c55;fill-opacity:1;stroke:none;stroke-width:1.44675;stroke-miterlimit:4;stroke-dasharray:none;stroke-opacity:1"
           d="m 471.33109,278.88534 c 9.7e-4,0.009 0.002,0.0178 0.003,0.0264 0.007,-0.004 0.1137,-0.0485 0.11715,-0.0513 0.003,-0.003 -0.1197,0.0268 -0.12015,0.0249 z" />
        <path
           id="path3714"
           style="fill:#219c55;fill-opacity:1;stroke:none;stroke-width:1.44675;stroke-miterlimit:4;stroke-dasharray:none;stroke-opacity:1"
           d="m 359.51666,-92.405678 c -0.0394,-0.0383 -0.92055,2.13376 -1.97168,4.90723 -1.10302,2.95609 -2.3292,5.84935 -3.68115,8.6836 -1.35195,2.83424 -2.82997,5.60896 -4.4385,8.33056 -1.60845,2.72161 -3.3465,5.39013 -5.21925,8.0083 -1.87267,2.61818 -3.88027,5.187 -6.0249,7.71094 -2.14455,2.52394 -4.42687,5.00248 -6.85102,7.4414 -2.42415,2.43893 -4.9893,4.8381 -7.7007,7.2012 -2.7114,2.363027 -5.5689,4.690802 -8.5752,6.987302 -3.0063,2.296425 -6.1614,4.56075 -9.47018,6.7998 -2.69587,1.827075 -5.24752,3.508501 -7.98345,5.235376 -2.73592,1.7268 -5.6559,3.499425 -9.09082,5.5122 -6.86985,4.025475 -15.7977,9.0083252 -29.41695,16.49407521 C 248.9545,6.4614052 240.54985,11.17748 233.54598,15.231081 c -7.00388,4.053525 -12.60645,7.444575 -17.14013,10.350525 -4.76017,3.05235 -9.33472,6.1335 -13.73587,9.253425 -4.40115,3.12 -8.6286,6.2799 -12.69435,9.490725 -4.06568,3.2109 -7.9692,6.471825 -11.7231,9.796876 -1.36508,1.209075 -2.61015,2.47395 -3.93608,3.7002 0.48188,0.7647 1.38353,2.293125 3.14355,5.53125 3.96495,7.27125 8.01983,14.4645 12.16553,21.580125 4.14577,7.115551 8.38192,14.153626 12.70897,21.114223 4.32705,6.9606 8.74515,13.84365 13.25393,20.6499 4.50885,6.80625 9.10927,13.536 13.8003,20.1885 4.69102,6.6525 9.47295,13.2276 14.34667,19.72703 4.87373,6.49942 9.83918,12.9231 14.89598,19.27005 5.05688,6.34695 10.20495,12.61785 15.44535,18.813 5.2404,6.19507 10.57313,12.31492 15.99758,18.35887 3.99585,4.44818 8.06452,8.86913 12.19185,13.25093 4.1274,4.38187 8.31345,8.72392 12.54052,13.01077 4.22715,4.28685 8.49593,8.5194 12.79103,12.68258 1.7034,1.65113 3.42517,3.23625 5.13577,4.8648 1.43445,-4.65742 2.92568,-9.28163 4.28025,-13.98488 2.45573,-8.52667 4.78095,-17.1297 6.9741,-25.80765 2.19315,-8.67787 4.25528,-17.43172 6.18608,-26.2617 1.9308,-8.82997 3.7293,-17.73592 5.3979,-26.71875 1.66867,-8.98282 3.2076,-18.04215 4.6143,-27.17872 1.4067,-9.13658 2.68117,-18.35048 3.8262,-27.64155 0.62332,-5.11815 1.19017,-9.05903 1.24657,-8.77155 0.0564,0.28762 0.0469,4.30357 -0.007,8.90925 -0.13387,8.77455 -0.3855,17.52067 -0.75442,26.23095 -0.36885,8.7102 -0.8544,17.38455 -1.45605,26.0127 -0.60165,8.62807 -1.31963,17.21062 -2.15183,25.73872 -0.8322,8.5281 -1.77982,17.0019 -2.84032,25.4121 -1.0605,8.41028 -2.2335,16.75673 -3.52005,25.03125 -1.28655,8.2746 -2.68635,16.47668 -4.19678,24.59768 -0.22162,1.1916 -0.48697,2.34953 -0.7134,3.5376 5.04698,1.61663 10.21013,3.06255 15.41895,4.30808 5.2317,1.251 10.50825,2.30287 15.75735,3.12892 3.56498,0.5583 7.1376,1.02728 10.71825,1.40625 3.58065,0.37898 7.1685,0.66758 10.76513,0.86723 3.5967,0.19965 7.20195,0.30922 10.815,0.32955 3.61297,0.0203 7.23495,-0.049 10.86472,-0.20798 3.62978,-0.159 7.26773,-0.40725 10.91453,-0.74565 3.64687,-0.33832 7.30155,-0.76695 10.96583,-1.28467 3.66427,-0.51765 7.338,-1.12365 11.02005,-1.82078 3.68197,-0.69705 7.37257,-1.48485 11.0727,-2.3613 1.96762,-0.47055 3.38722,-0.7563 3.3999,-0.70462 -0.81045,-7.42688 -1.62083,-14.84603 -2.70848,-22.64941 -0.99532,-7.07077 -2.17912,-14.5773 -3.52147,-22.35787 -1.34228,-7.78065 -2.8431,-15.83528 -4.47068,-24.00593 -1.62757,-8.17057 -3.38272,-16.45635 -5.23387,-24.6972 -1.85123,-8.24092 -3.798,-16.4379 -5.81108,-24.42922 -2.18917,-8.68613 -4.52205,-17.4894 -6.99607,-26.40383 -2.47403,-8.91435 -5.08861,-17.9397 -7.84283,-27.06885 -2.75415,-9.129147 -5.64818,-18.362398 -8.67773,-27.692848 -3.02955,-9.330525 -6.19492,-18.7575 -9.49507,-28.275901 -3.30015,-9.5184 -6.73478,-19.128 -10.3008,-28.820775 -3.56603,-9.692851 -7.26465,-19.4694758 -11.09183,-29.3232758 -3.8271,-9.8538002 -7.78312,-19.7847762 -11.86665,-29.7861012 -4.08352,-10.001327 -8.29327,-20.072617 -12.62842,-30.208017 -5.18925,-12.15326 -10.9806,-25.42194 -11.16945,-25.57179 z" />
      </g>
    </g>
  </g>
</svg>
